HIERARCHY
ROOT Root
{
  OFFSET 0.0 0.0 0.0
  CHANNELS 6 Xposition Yposition Zposition Zrotation Yrotation Xrotation
  JOINT Hips
  {
    OFFSET 0.0 100.0 0.0
    CHANNELS 6 Xposition Yposition Zposition Zrotation Yrotation Xrotation
    JOINT Spine1
    {
      OFFSET 5.003913 -0.037094 -0.013727
      CHANNELS 3 Zrotation Yrotation Xrotation
      JOINT Spine2
      {
        OFFSET 7.125363 -1e-06 0.0
        CHANNELS 3 Zrotation Yrotation Xrotation
        JOINT Chest
        {
          OFFSET 7.594027 1e-06 0.0
          CHANNELS 3 Zrotation Yrotation Xrotation
          JOINT Neck1
          {
            OFFSET 26.313086 -0.460272 -0.181672
            CHANNELS 3 Zrotation Yrotation Xrotation
            JOINT Neck2
            {
              OFFSET 8.045911 0.0 0.0
              CHANNELS 3 Zrotation Yrotation Xrotation
              JOINT Head
              {
                OFFSET 6.432774 0.0 0.0
                CHANNELS 3 Zrotation Yrotation Xrotation
                JOINT HeadEnd
                {
                  OFFSET 16.169773 0.06451 0.00362
                  CHANNELS 3 Zrotation Yrotation Xrotation
                }
                JOINT Jaw
                {
                  OFFSET 0.108741 3.12938 0.002639
                  CHANNELS 3 Zrotation Yrotation Xrotation
                }
                JOINT LeftEye
                {
                  OFFSET 4.45173 8.166359 3.206392
                  CHANNELS 3 Zrotation Yrotation Xrotation
                }
                JOINT RightEye
                {
                  OFFSET 4.436895 8.135758 -3.222429
                  CHANNELS 3 Zrotation Yrotation Xrotation
                }
              }
            }
          }
          JOINT LeftShoulder
          {
            OFFSET 23.218927 5.195579 1.621656
            CHANNELS 3 Zrotation Yrotation Xrotation
            JOINT LeftArm
            {
              OFFSET 15.902118 2e-06 -2e-06
              CHANNELS 3 Zrotation Yrotation Xrotation
              JOINT LeftForeArm
              {
                OFFSET 28.739307 0.0 -1e-06
                CHANNELS 3 Zrotation Yrotation Xrotation
                JOINT LeftHand
                {
                  OFFSET 27.093981 -4e-06 0.0
                  CHANNELS 3 Zrotation Yrotation Xrotation
                  JOINT LeftHandThumb1
                  {
                    OFFSET 2.276781 3.380274 0.83384
                    CHANNELS 3 Zrotation Yrotation Xrotation
                    JOINT LeftHandThumb2
                    {
                      OFFSET 4.705309 -1e-06 -1e-06
                      CHANNELS 3 Zrotation Yrotation Xrotation
                      JOINT LeftHandThumb3
                      {
                        OFFSET 2.798515 0.0 3e-06
                        CHANNELS 3 Zrotation Yrotation Xrotation
                        JOINT LeftHandThumbEnd
                        {
                          OFFSET 3.180793 4e-06 -4e-06
                          CHANNELS 3 Zrotation Yrotation Xrotation
                        }
                      }
                    }
                  }
                  JOINT LeftHandIndex1
                  {
                    OFFSET 3.247786 2.352677 0.137192
                    CHANNELS 3 Zrotation Yrotation Xrotation
                    JOINT LeftHandIndex2
                    {
                      OFFSET 6.367095 1e-06 0.0
                      CHANNELS 3 Zrotation Yrotation Xrotation
                      JOINT LeftHandIndex3
                      {
                        OFFSET 3.662364 0.0 0.0
                        CHANNELS 3 Zrotation Yrotation Xrotation
                        JOINT LeftHandIndex4
                        {
                          OFFSET 2.329242 4e-06 -4e-06
                          CHANNELS 3 Zrotation Yrotation Xrotation
                          JOINT LeftHandIndexEnd
                          {
                            OFFSET 2.767823 1e-06 0.0
                            CHANNELS 3 Zrotation Yrotation Xrotation
                          }
                        }
                      }
                    }
                  }
                  JOINT LeftHandMiddle1
                  {
                    OFFSET 3.163612 0.945023 -0.406112
                    CHANNELS 3 Zrotation Yrotation Xrotation
                    JOINT LeftHandMiddle2
                    {
                      OFFSET 6.276789 3e-06 0.0
                      CHANNELS 3 Zrotation Yrotation Xrotation
                      JOINT LeftHandMiddle3
                      {
                        OFFSET 4.35652 -1e-06 4e-06
                        CHANNELS 3 Zrotation Yrotation Xrotation
                        JOINT LeftHandMiddle4
                        {
                          OFFSET 2.996877 0.0 8e-06
                          CHANNELS 3 Zrotation Yrotation Xrotation
                          JOINT LeftHandMiddleEnd
                          {
                            OFFSET 2.323256 3e-06 -4e-06
                            CHANNELS 3 Zrotation Yrotation Xrotation
                          }
                        }
                      }
                    }
                  }
                  JOINT LeftHandRing1
                  {
                    OFFSET 2.882606 -0.309162 0.107445
                    CHANNELS 3 Zrotation Yrotation Xrotation
                    JOINT LeftHandRing2
                    {
                      OFFSET 6.033198 0.0 4e-06
                      CHANNELS 3 Zrotation Yrotation Xrotation
                      JOINT LeftHandRing3
                      {
                        OFFSET 4.350578 3e-06 0.0
                        CHANNELS 3 Zrotation Yrotation Xrotation
                        JOINT LeftHandRing4
                        {
                          OFFSET 2.651321 2e-06 -7e-06
                          CHANNELS 3 Zrotation Yrotation Xrotation
                          JOINT LeftHandRingEnd
                          {
                            OFFSET 1.937663 1e-06 -4e-06
                            CHANNELS 3 Zrotation Yrotation Xrotation
                          }
                        }
                      }
                    }
                  }
                  JOINT LeftHandPinky1
                  {
                    OFFSET 2.865315 -1.525436 0.575687
                    CHANNELS 3 Zrotation Yrotation Xrotation
                    JOINT LeftHandPinky2
                    {
                      OFFSET 5.54936 1e-06 -8e-06
                      CHANNELS 3 Zrotation Yrotation Xrotation
                      JOINT LeftHandPinky3
                      {
                        OFFSET 3.070974 0.0 -4e-06
                        CHANNELS 3 Zrotation Yrotation Xrotation
                        JOINT LeftHandPinky4
                        {
                          OFFSET 1.549672 1e-06 0.0
                          CHANNELS 3 Zrotation Yrotation Xrotation
                          JOINT LeftHandPinkyEnd
                          {
                            OFFSET 1.952123 0.0 0.0
                            CHANNELS 3 Zrotation Yrotation Xrotation
                          }
                        }
                      }
                    }
                  }
                }
              }
            }
          }
          JOINT RightShoulder
          {
            OFFSET 23.161716 5.296122 -1.380114
            CHANNELS 3 Zrotation Yrotation Xrotation
            JOINT RightArm
            {
              OFFSET -16.027195 -2e-06 1.1e-05
              CHANNELS 3 Zrotation Yrotation Xrotation
              JOINT RightForeArm
              {
                OFFSET -28.736639 4e-06 2e-06
                CHANNELS 3 Zrotation Yrotation Xrotation
                JOINT RightHand
                {
                  OFFSET -27.133619 6e-06 0.0
                  CHANNELS 3 Zrotation Yrotation Xrotation
                  JOINT RightHandThumb1
                  {
                    OFFSET -2.274328 -3.351035 -0.83067
                    CHANNELS 3 Zrotation Yrotation Xrotation
                    JOINT RightHandThumb2
                    {
                      OFFSET -4.703594 -3e-06 2e-06
                      CHANNELS 3 Zrotation Yrotation Xrotation
                      JOINT RightHandThumb3
                      {
                        OFFSET -2.794935 -4e-06 -3e-06
                        CHANNELS 3 Zrotation Yrotation Xrotation
                        JOINT RightHandThumbEnd
                        {
                          OFFSET -3.183852 4e-06 1e-06
                          CHANNELS 3 Zrotation Yrotation Xrotation
                        }
                      }
                    }
                  }
                  JOINT RightHandIndex1
                  {
                    OFFSET -3.253496 -2.33755 -0.127667
                    CHANNELS 3 Zrotation Yrotation Xrotation
                    JOINT RightHandIndex2
                    {
                      OFFSET -6.344434 0.0 0.0
                      CHANNELS 3 Zrotation Yrotation Xrotation
                      JOINT RightHandIndex3
                      {
                        OFFSET -3.654871 0.0 -8e-06
                        CHANNELS 3 Zrotation Yrotation Xrotation
                        JOINT RightHandIndex4
                        {
                          OFFSET -2.327586 -1e-06 0.0
                          CHANNELS 3 Zrotation Yrotation Xrotation
                          JOINT RightHandIndexEnd
                          {
                            OFFSET -2.770001 3e-06 8e-06
                            CHANNELS 3 Zrotation Yrotation Xrotation
                          }
                        }
                      }
                    }
                  }
                  JOINT RightHandMiddle1
                  {
                    OFFSET -3.168223 -0.944764 0.411762
                    CHANNELS 3 Zrotation Yrotation Xrotation
                    JOINT RightHandMiddle2
                    {
                      OFFSET -6.266691 -1e-06 -4e-06
                      CHANNELS 3 Zrotation Yrotation Xrotation
                      JOINT RightHandMiddle3
                      {
                        OFFSET -4.348901 0.0 0.0
                        CHANNELS 3 Zrotation Yrotation Xrotation
                        JOINT RightHandMiddle4
                        {
                          OFFSET -3.00024 2e-06 -4e-06
                          CHANNELS 3 Zrotation Yrotation Xrotation
                          JOINT RightHandMiddleEnd
                          {
                            OFFSET -2.321477 -4e-06 -4e-06
                            CHANNELS 3 Zrotation Yrotation Xrotation
                          }
                        }
                      }
                    }
                  }
                  JOINT RightHandRing1
                  {
                    OFFSET -2.885654 0.293261 -0.119232
                    CHANNELS 3 Zrotation Yrotation Xrotation
                    JOINT RightHandRing2
                    {
                      OFFSET -6.032835 -1e-06 -4e-06
                      CHANNELS 3 Zrotation Yrotation Xrotation
                      JOINT RightHandRing3
                      {
                        OFFSET -4.33881 0.0 -4e-06
                        CHANNELS 3 Zrotation Yrotation Xrotation
                        JOINT RightHandRing4
                        {
                          OFFSET -2.654903 -4e-06 -4e-06
                          CHANNELS 3 Zrotation Yrotation Xrotation
                          JOINT RightHandRingEnd
                          {
                            OFFSET -1.935122 0.0 4e-06
                            CHANNELS 3 Zrotation Yrotation Xrotation
                          }
                        }
                      }
                    }
                  }
                  JOINT RightHandPinky1
                  {
                    OFFSET -2.866241 1.503904 -0.60527
                    CHANNELS 3 Zrotation Yrotation Xrotation
                    JOINT RightHandPinky2
                    {
                      OFFSET -5.553177 -2e-06 0.0
                      CHANNELS 3 Zrotation Yrotation Xrotation
                      JOINT RightHandPinky3
                      {
                        OFFSET -3.062664 -1e-06 -4e-06
                        CHANNELS 3 Zrotation Yrotation Xrotation
                        JOINT RightHandPinky4
                        {
                          OFFSET -1.546529 2e-06 4e-06
                          CHANNELS 3 Zrotation Yrotation Xrotation
                          JOINT RightHandPinkyEnd
                          {
                            OFFSET -1.952341 0.0 -4e-06
                            CHANNELS 3 Zrotation Yrotation Xrotation
                          }
                        }
                      }
                    }
                  }
                }
              }
            }
          }
        }
      }
    }
    JOINT LeftLeg
    {
      OFFSET -8.443107 2.567604 10.043214
      CHANNELS 3 Zrotation Yrotation Xrotation
      JOINT LeftShin
      {
        OFFSET 43.229198 1e-06 -1e-06
        CHANNELS 3 Zrotation Yrotation Xrotation
        JOINT LeftFoot
        {
          OFFSET 42.298611 1e-06 1e-06
          CHANNELS 3 Zrotation Yrotation Xrotation
          JOINT LeftToeBase
          {
            OFFSET 14.165858 1e-06 0.0
            CHANNELS 3 Zrotation Yrotation Xrotation
            JOINT LeftToeEnd
            {
              OFFSET 6.7141 -0.234461 0.0
              CHANNELS 3 Zrotation Yrotation Xrotation
            }
          }
        }
      }
    }
    JOINT RightLeg
    {
      OFFSET -8.303923 2.592729 -10.047278
      CHANNELS 3 Zrotation Yrotation Xrotation
      JOINT RightShin
      {
        OFFSET -43.369682 0.0 1e-06
        CHANNELS 3 Zrotation Yrotation Xrotation
        JOINT RightFoot
        {
          OFFSET -42.260784 4e-06 2e-06
          CHANNELS 3 Zrotation Yrotation Xrotation
          JOINT RightToeBase
          {
            OFFSET -14.222245 -2e-06 -1e-06
            CHANNELS 3 Zrotation Yrotation Xrotation
            JOINT RightToeEnd
            {
              OFFSET -6.660062 0.232574 -2e-06
              CHANNELS 3 Zrotation Yrotation Xrotation
            }
          }
        }
      }
    }
  }
}
MOTION
Frames: 4
Frame Time: 0.03333333333333333
0.0 0.0 0.0 0.0 -0.0 0.0 3.399456 99.834618 -6.007902 89.057518 -12.193041 88.205002 13.072275 -1.469292 0.241626 -5.16503 -0.558498 0.286961 33.275921 -1.000966 -1.37155 13.387941 5.212364 2.672 -2.329801 -0.919075 -0.246298 -25.909046 1.827815 -1.196837 7e-06 -0.0 0.0 -0.144059 -0.015967 0.040867 -0.248204 -0.042826 -0.048756 -0.227966 0.004538 0.135854 121.313545 -75.177513 -109.34642 50.502945 -10.736221 -41.814056 25.165447 -0.247042 -0.190885 -3.195106 8.281951 -48.042671 17.636757 -26.322954 52.411541 -19.466803 -14.395713 29.410622 5e-06 -8.774919 -7e-06 15.738718 -17.969643 5.975562 -0.609782 -1.795663 -3.889349 -4.80713 -11.046892 -2.937869 -5e-06 -20.976233 1e-05 -5.020044 -25.033901 -4.031939 6e-06 2e-06 0.0 -10.634603 -5.687004 -3.565607 10.573359 -17.923084 -3.113919 -2e-06 -13.821352 8e-06 -0.501794 -31.181978 -4.027069 -11.097128 -59.390789 6.905538 -13.982801 -7.150238 -2.875056 13.772841 -8.401549 -3.218263 0.347715 -34.211948 0.771688 -0.96306 -17.733627 2.621073 1e-06 -0.0 1e-06 -17.346539 -20.095333 -4.201797 21.757736 -1.638383 3.866466 -0.0 -6.338888 6e-06 -1.697616 -22.592056 -6.194098 -4e-06 -5e-06 -2e-06 -80.255287 -79.089233 -90.586014 60.193111 -18.757883 -41.010361 24.65259 -0.600519 -0.091807 0.63062 7.113119 -43.585674 22.182255 -20.376127 49.93367 -16.701889 -16.74366 28.476748 -5e-06 -12.690707 2e-06 16.672157 -17.967552 2.749972 -0.105921 -1.513857 -4.275906 -5.039074 -5.612899 -2.953576 6e-06 -11.020608 1.4e-05 -6.111352 -15.895486 -3.840505 -1e-06 0.0 0.0 -10.283428 -5.680309 -4.341866 11.028368 -11.302468 -2.372636 -1.384274 -14.238682 -6.320169 -0.625445 -26.924479 -3.827613 -5.03688 -50.88591 -2.778872 -13.708601 -7.363505 -3.720963 18.141273 -14.052821 -3.24268 -4e-06 -18.787424 3.6e-05 -0.429726 -8.456145 2.555562 -2e-06 1e-06 -2e-06 -15.923627 -20.09457 -5.473609 30.419405 -7.190872 1.735944 -3e-06 -8.162995 2e-05 -1.861941 -22.861721 -6.167957 -0.0 -2e-06 -0.0 152.623123 -3.102413 -13.958544 20.948935 0.072058 -0.153081 -74.641609 5.092821 2.072728 -4.575806 1.404491 2.127087 -1.000003 0.0 -0.0 -26.660526 -4.991438 -14.799641 16.213366 0.10451 -0.102862 -68.223557 5.472043 -2.542489 -4.557081 0.724833 1.694519 -1.000006 0.0 0.0 
0.0 0.0 0.0 0.0 -0.0 0.0 3.392982 99.901039 -5.871278 89.006439 -11.443285 88.251045 12.52893 -1.397596 0.277021 -5.39633 -0.510504 0.269372 32.775021 -0.95909 -1.340425 12.941579 5.191009 2.696511 -2.333473 -0.926509 -0.485217 -26.648457 1.760765 -1.557978 6e-06 -0.0 0.0 -0.142918 -0.014339 0.044031 -0.227659 -0.047979 -0.035272 -0.204961 0.013157 0.12881 124.370277 -75.363495 -112.288902 50.524277 -11.883097 -41.167591 24.57901 -0.242354 -0.188606 -3.059071 7.684133 -47.8876 17.636787 -26.322876 52.41164 -19.466946 -14.395812 29.410748 -5e-06 -8.774978 -2e-06 15.797607 -17.97621 5.962366 -0.609781 -1.795669 -3.889362 -4.807148 -11.046907 -2.937892 4.4e-05 -20.976255 -3.8e-05 -5.020009 -25.033922 -4.032001 6e-06 -1e-06 1e-06 -10.634649 -5.687014 -3.565612 10.573448 -17.923109 -3.113975 2.5e-05 -13.821354 -1.8e-05 -0.50171 -31.181973 -4.027134 -11.04516 -59.422646 6.888403 -13.982868 -7.15025 -2.875057 13.772939 -8.401572 -3.218301 0.347811 -34.211983 0.771609 -0.963012 -17.733637 2.621064 -0.0 -1e-06 -1e-06 -17.346619 -20.095367 -4.201824 21.757872 -1.638411 3.866463 9e-06 -6.33889 -4e-06 -1.697583 -22.592073 -6.194157 -3e-06 -3e-06 -0.0 -78.407906 -79.616432 -92.279869 60.622978 -20.07514 -40.738041 24.197206 -0.607796 -0.095219 0.662406 6.804915 -43.387283 22.182411 -20.375999 49.933792 -16.702112 -16.74379 28.476906 -1.7e-05 -12.690857 -9e-06 16.755154 -17.982979 2.715096 -0.105916 -1.513872 -4.275923 -5.039119 -5.612929 -2.953598 2.2e-05 -11.020659 -2.7e-05 -6.111402 -15.895592 -3.840595 1e-06 -2e-06 0.0 -10.283512 -5.680343 -4.341876 11.028485 -11.302521 -2.372687 -1.384272 -14.23877 -6.32025 -0.625341 -26.924669 -3.827743 -5.053472 -50.886967 -2.820122 -13.708711 -7.363545 -3.720973 18.141474 -14.052893 -3.242748 4.9e-05 -18.787502 -3.5e-05 -0.429695 -8.456175 2.55555 -0.0 -2e-06 2e-06 -15.923757 -20.094667 -5.473656 30.419729 -7.190947 1.735951 1.9e-05 -8.163023 -7e-06 -1.861884 -22.861845 -6.168107 1e-06 -1e-06 2e-06 153.727478 -3.118239 -14.170852 20.566847 0.070276 -0.138751 -74.546982 5.355272 2.177748 -4.491002 1.392115 2.127434 -1.000003 -0.0 -0.0 -25.625502 -4.970241 -14.9333 15.98632 0.110567 -0.127351 -68.143051 5.565104 -2.459343 -4.512306 0.710031 1.689348 -1.000005 -0.0 -0.0 
0.0 0.0 0.0 0.0 -0.0 0.0 3.378713 99.955582 -5.696351 88.934952 -10.700648 88.328178 11.965146 -1.302298 0.32235 -5.644158 -0.464796 0.242399 32.206024 -0.905084 -1.309282 12.415759 5.139971 2.711444 -2.341479 -0.950818 -0.756984 -27.472033 1.604312 -1.92027 5e-06 0.0 -1e-06 -0.138953 -0.004876 0.037654 -0.197535 -0.040954 -0.026855 -0.176251 0.025302 0.107554 127.444717 -75.518272 -115.226906 50.470757 -13.095945 -40.363514 24.041275 -0.22263 -0.189973 -3.001593 7.063299 -47.68269 17.636797 -26.323011 52.412037 -19.467073 -14.395821 29.410994 -2e-06 -8.775007 2e-06 15.833363 -17.972795 5.952074 -0.609787 -1.795681 -3.889385 -4.807171 -11.046985 -2.937929 3.4e-05 -20.976429 -7.3e-05 -5.020012 -25.034197 -4.032094 5e-06 -6e-06 0.0 -10.634682 -5.687055 -3.565644 10.573476 -17.923227 -3.114017 2.3e-05 -13.821469 -3.9e-05 -0.501671 -31.182327 -4.027249 -11.013496 -59.417278 6.89685 -13.982904 -7.150301 -2.875088 13.772966 -8.401619 -3.218329 0.34781 -34.212273 0.771554 -0.963014 -17.733784 2.62105 -1e-06 -0.0 0.0 -17.346657 -20.095497 -4.201873 21.757927 -1.638398 3.866488 5e-06 -6.338936 -1.3e-05 -1.697567 -22.592304 -6.194268 -3e-06 -5e-06 -3e-06 -76.586952 -80.213249 -93.987572 61.050117 -21.452591 -40.472534 23.733212 -0.631072 -0.10547 0.686482 6.486366 -43.18261 22.182302 -20.376057 49.933941 -16.702156 -16.743757 28.477032 -5e-06 -12.690822 1.4e-05 16.816727 -17.991488 2.682603 -0.105917 -1.513881 -4.275936 -5.03911 -5.612967 -2.953607 5e-06 -11.020732 -3.4e-05 -6.111404 -15.895732 -3.840598 -1e-06 -0.0 -1e-06 -10.283485 -5.680372 -4.341889 11.028454 -11.302569 -2.372708 -1.384271 -14.238858 -6.32028 -0.625368 -26.92485 -3.8278 -5.050582 -50.822098 -2.864888 -13.708688 -7.363583 -3.72098 18.14142 -14.052943 -3.242781 2.7e-05 -18.787622 -6.2e-05 -0.429711 -8.456226 2.555536 -1e-06 4e-06 -0.0 -15.923729 -20.094767 -5.473665 30.419647 -7.190918 1.735908 6e-06 -8.163061 -2.1e-05 -1.861874 -22.861996 -6.168172 -3e-06 -3e-06 -3e-06 154.785873 -3.158595 -14.33969 20.293617 0.069696 -0.119251 -74.53624 5.583866 2.297492 -4.412933 1.374387 2.126883 -1.000001 0.0 -0.0 -24.560551 -4.917355 -15.114487 15.750994 0.113286 -0.145929 -68.155746 5.619112 -2.368222 -4.461624 0.694605 1.68588 -1.000008 -1e-06 -0.0 
0.0 0.0 0.0 0.0 -0.0 0.0 3.354824 99.988068 -5.491841 88.838066 -9.967923 88.431526 11.37443 -1.181981 0.373506 -5.90697 -0.413967 0.209907 31.568468 -0.842778 -1.278107 11.856913 5.037749 2.719444 -2.350568 -0.959483 -1.055289 -28.349707 1.370416 -2.280466 3e-06 -0.0 0.0 -0.131367 0.007738 0.026017 -0.16466 -0.027278 -0.021141 -0.147255 0.036899 0.078601 130.56781 -75.668068 -118.202492 50.36417 -14.340947 -39.378139 23.617344 -0.208389 -0.203129 -3.08894 6.438859 -47.355606 17.636705 -26.322966 52.411736 -19.466877 -14.395727 29.410769 3e-06 -8.774925 2e-06 15.828205 -17.968563 5.953014 -0.609786 -1.795667 -3.889362 -4.807133 -11.046912 -2.93789 4e-06 -20.976263 -2.4e-05 -5.020018 -25.033953 -4.031992 5e-06 -2e-06 -1e-06 -10.634609 -5.687019 -3.565622 10.573369 -17.923105 -3.113954 1e-06 -13.821363 -9e-06 -0.50175 -31.182007 -4.02713 -11.022498 -59.40139 6.93592 -13.982817 -7.150261 -2.87507 13.772855 -8.40156 -3.218284 0.34773 -34.212009 0.771641 -0.96305 -17.733656 2.621056 -2e-06 -0.0 -1e-06 -17.346556 -20.095381 -4.201828 21.75775 -1.638378 3.866464 3e-06 -6.338895 -3e-06 -1.697592 -22.592104 -6.194155 -3e-06 -3e-06 -1e-06 -74.679878 -80.839233 -95.83107 61.402924 -22.885412 -40.135098 23.35248 -0.680708 -0.120574 0.658787 6.194937 -42.900097 22.182268 -20.376127 49.933846 -16.702032 -16.743713 28.476927 -1.2e-05 -12.690763 1.2e-05 16.842287 -17.980627 2.6587 -0.105919 -1.513869 -4.275924 -5.039088 -5.612931 -2.953596 1e-05 -11.02068 -1.1e-05 -6.11137 -15.89563 -3.840561 0.0 1e-06 0.0 -10.28345 -5.680335 -4.341881 11.028415 -11.302525 -2.372673 -1.384266 -14.238783 -6.320232 -0.625396 -26.924707 -3.827708 -5.047505 -50.730698 -2.889056 -13.708632 -7.363537 -3.720977 18.14135 -14.052891 -3.242734 1.6e-05 -18.787535 -8e-06 -0.42972 -8.456195 2.555552 3e-06 0.0 3e-06 -15.923659 -20.094652 -5.473645 30.419521 -7.190904 1.735919 4e-06 -8.163035 2e-06 -1.861901 -22.861883 -6.168061 -0.0 0.0 -1e-06 155.74884 -3.242417 -14.449579 20.214453 0.068909 -0.098372 -74.636154 5.802584 2.416475 -4.343653 1.358873 2.12762 -1.000003 -0.0 -0.0 -23.480883 -4.823285 -15.319571 15.515446 0.115585 -0.151293 -68.287666 5.631868 -2.300605 -4.39296 0.680697 1.684976 -1.000005 0.0 -0.0 
